# xmcd
#
# Track frame offsets: 
#        187
#        13985
#        30442
#        41135
#        56062
#        77017
#        91805
#        105310
#        123005
#        142707
#
# Disc length: 2178 seconds
#
# Revision: 2
# Processed by: cddbd v1.4PL0 Copyright (c) Steve Scherf et al.
# Submitted via: ExactAudioCopy v0.90a11
#
DISCID=6f08800a
DTITLE=The Oak Ridge Boys - Monongahela
DYEAR=1900
DGENRE=
TTITLE0=Gonna Take A Lot Of River (Mississippi, Monongahela, Ohio)
TTITLE1=I Can Count On You
TTITLE2=Never Together (But Close Sometimes)
TTITLE3=No Way Out
TTITLE4=Beyond Those Years
TTITLE5=Private Lives
TTITLE6=Too Many Heartaches
TTITLE7=Bridges And Walls
TTITLE8=When Karen Comes Around
TTITLE9=Taking One Heartbeat (At A Time)
EXTD=
EXTT0=
EXTT1=
EXTT2=
EXTT3=
EXTT4=
EXTT5=
EXTT6=
EXTT7=
EXTT8=
EXTT9=
PLAYORDER=
